<svg id="Layer_1" data-name="Layer 1" xmlns="http://www.w3.org/2000/svg" viewBox="0 0 31.64 31.64"><defs><style>.cls-1{fill:#cca85c;}.cls-2{fill:#103b58;}</style></defs><rect class="cls-1" x="4.63" y="4.63" width="22.37" height="22.37"/><rect class="cls-2" x="4.81" y="4.81" width="22.37" height="22.37" transform="translate(-6.81 15.82) rotate(-45)"/><path class="cls-1" d="M13.09,10.14c0-.17.29-.61.48-.6s0,.11.07.2.25.29.33.46,0,.13.06.15a1.48,1.48,0,0,1,.31-.47s.06,0,0-.05-.19-.19-.16-.3.42-.16.61-.21.28-.33.32,0-.27,1-.67.58l-.22.41v0c.15-.18.31-.06.49-.08s.16-.12.29-.1a.7.7,0,0,1-.56.82c-.21,0-.2-.2-.22-.2-.23,0-.18.34-.16.48s.2.63.27.59.09-.12.1-.13-.09-.09-.11-.12c-.15-.26.08-.43.31-.51s.24,0,.34-.12.05-.17.15-.11.08.42.08.5c0,.26-.31.84-.61.56,0,0,0-.15-.11-.07s.15.37.29.44l.8-.38a.41.41,0,0,1-.23-.39c.34.08.38-.32.69-.32,0,0,.07,0,.11,0s-.28-.14-.39-.25c-.15.24-.37.11-.47-.09a.78.78,0,0,1,0-.58c.12-.37.17-.06.27,0a2.44,2.44,0,0,0,.33.1c-.05-.05-.18-.37-.2-.39s-.15.05-.25,0c-.25-.13-.06-.65.1-.79a1.69,1.69,0,0,1,.29-.17c.14,0,0,.17.07.27a.73.73,0,0,0,.18.17c.05,0,0-.08.07-.12s.42-.06.56-.18.08-.17.15,0a.74.74,0,0,1-.2.82c-.22.13-.24-.07-.31-.08s-.24.29-.26.36a.91.91,0,0,0,.12.61c.05.06.14-.06.15-.09s-.11-.06-.12-.2c0-.41.46-.3.67-.47,0,0,.07-.15.14-.09a1.12,1.12,0,0,1,.05.46c0,.29-.42.83-.71.48a.4.4,0,0,0,0,.11c0,.07.27.31.33.4A1.64,1.64,0,0,1,17,12c0,.05,0,.15,0,.17l.11.05c.05,0,.28.2.3.2s.31-.14.35-.2a.18.18,0,0,0,0-.24c-.35.44-.66-.24-.66-.56a1,1,0,0,1,.06-.29c.12-.36.14-.06.28,0s.17,0,.25.07.41.23.31.49c0,0-.13.13-.13.15l.07.13c.06.05.19-.25.21-.29s.22-.57.06-.71-.09.14-.31.14-.55-.44-.54-.73.16,0,.31,0,.34-.09.48.11c0-.06-.16-.42-.18-.44s-.09.06-.15.08c-.42.16-.62-.65-.42-.93.1,0,.16.14.24.16s.66,0,.61.35c0,.15-.08.14-.18.22a2.72,2.72,0,0,1,.33.48c0-.2.3-.32.37-.44s0-.3.15-.3a1.2,1.2,0,0,1,.21.19,1,1,0,0,1,.17.83.88.88,0,0,1,.64-.28l.23.05c0,.06-.06.15-.08.2-.09.21.09.58-.28.62-.1,0-.15-.05-.2-.05s-.21.31-.28.36l.49.2h.18c0-.06-.06-.08-.07-.14-.09-.38.54-.77.88-.66s0,.17,0,.29.15.93-.37.8c-.15,0-.15-.17-.17-.19s-.23.12-.3.08c.19.21,0,.37-.05.53s.12.26-.13.23a.7.7,0,0,1-.41-.26c-.13-.2-.16-.58.17-.53,0-.16-.18-.19-.32-.22a1.17,1.17,0,0,0-.84.16c-.05,0-.25.24-.21.28s.09-.09.12-.12a.26.26,0,0,1,.27-.1c.33,0,.31.45.66.4a.67.67,0,0,1-1,.33.26.26,0,0,1-.1-.29s.08,0,0-.1-.29.28-.39.33a2.29,2.29,0,0,1,.43.92l.11-.26c.14-.14.24-.2.29-.4.34.05.46.81.15.92,0,0-.19.05-.19,0-.17.18.12.1.25.1s.35.07.4,0-.07-.06-.12-.08-.12-.4-.05-.53a.52.52,0,0,1,.5-.3c-.09.29.35.56.17.82s-.33,0-.34,0V14a2.43,2.43,0,0,0,.7-.05.28.28,0,0,0,0-.15s-.19.1-.28-.08.1-.93.44-1c.05,0,0,0,0,0a1.21,1.21,0,0,0,0,.19c0,.08.14.17.19.26s.14.4-.1.5l-.15,0s0,.11,0,.14a1.35,1.35,0,0,0,.47-.26c.12-.09.23-.18.19-.33s-.19,0-.33-.08a.85.85,0,0,1-.12-.5c0-.09.12-.45.25-.41s0,.12.07.17.26.15.33.25l.06.2a3.24,3.24,0,0,0,.05-.5s-.27,0-.34-.15a.64.64,0,0,1,.27-.72c.19-.11.11.05.18.17s.24.21.31.32a.21.21,0,0,1-.14.35s-.13,0-.13,0v.4s-.05,0,0,0,.05-.08.09-.13.22-.1.34-.16.08-.1.11-.12.18.29.17.4-.17.47-.35.45-.15-.08-.19-.09a2.63,2.63,0,0,0-.3.14c-.05,0-.12.2-.17.25a2.14,2.14,0,0,0,.45,0c.05,0,0-.11.06-.16s.33-.17.48-.1.16.15.24.16.22-.11.22,0a.77.77,0,0,1-.2.39.69.69,0,0,1-.72.15c-.14-.1-.05-.29-.06-.3l-.26,0c-.05,0-.29,0-.31,0a1.68,1.68,0,0,0-.35.26c.23,0,.43.65.61.69,0,0,.06,0,.06,0s0,0-.05,0,0-.11,0-.12.08-.19.13-.23a.65.65,0,0,1,.58-.14.67.67,0,0,1,.21.09c.07.11-.07.12-.11.17s-.11.53-.47.44c-.14,0-.11-.12-.13-.14a.09.09,0,0,0,0,.15.63.63,0,0,0,.74,0c.06,0,0,0,0,0-.11-.2,0-.31.21-.36a.51.51,0,0,1,.4,0c.34.14.12.17,0,.29s-.12.5-.43.41c-.14-.05-.06-.26-.24-.12.15.08.21.29.39.27,0,.27-.46.4-.65.24s0-.19,0-.22-.24-.22-.29-.22c.13.12.05.23.08.36s.11.12.09.21a.61.61,0,0,1-.71-.29c-.05-.21.11-.2.11-.24s0-.11,0-.15,0-.2,0-.26a.6.6,0,0,1-.11.26c-.07.09-.18.11-.25.2s-.05.16-.07.17-.24-.14-.28-.22c-.14-.3-.05-.82.38-.68,0-.17,0-.24-.17-.32s-.64.1-.95,0c.07.19.13,0,.26,0,.34,0,.2.46.25.65s.13.12.11.22a1.15,1.15,0,0,1-.37,0c-.26,0-.72-.45-.46-.69.05-.05.16,0,.14-.09-.15-.23-.49-.22-.73-.16,0,0-.06,0,0,0l.11.18h.15c.17,0,.2.21.18.37s-.11.25-.12.33.07.15.05.23a.63.63,0,0,1-.6-.37c-.06-.14-.12-.42,0-.53s.13,0,.12-.07a.18.18,0,0,0-.33-.07,2.57,2.57,0,0,1-.36,1c0,.05.24.06.3.08.35.1.52.42.77.64s.17.08.32,0-.09-.08-.11-.12a.31.31,0,0,1,.05-.29.82.82,0,0,1,.78-.34c.5.06.17.21.1.35s-.06.53-.32.58a.33.33,0,0,1-.34-.1c0,.07-.3.18-.26.23a.1.1,0,0,1,.06,0c.1.09.36.38.47.39s.22,0,.21-.07c-.24-.13,0-.47.18-.56s.19,0,.33-.16.05-.18.17-.1a1.11,1.11,0,0,1,.12.49c0,.27-.23.73-.57.61,0,0-.08-.1-.1-.1s-.18,0-.1.08a1.35,1.35,0,0,0,.77.11c.1,0,.45-.12.37-.27-.25.08-.3-.13-.28-.33a.65.65,0,0,1,.33-.5c.2-.1.12.06.16.19s.15.19.17.27,0,.13,0,.2.07-.1.11-.14.33-.24.36-.28-.11-.24.07-.37a.85.85,0,0,1,.52-.08c.15,0,.44.22.43.4-.3-.06-.39.47-.63.52-.08,0-.23,0-.28-.07s-.06-.23-.11-.2-.32.37-.41.44a1.43,1.43,0,0,0-.2.14l.33-.09c.1,0,.46,0,.41.16s-.11.07-.15.15,0,.15-.05.22-.09.07-.08.12a.51.51,0,0,0,.32-.13S21.9,17.2,22,17a.69.69,0,0,1,.63-.19,1.12,1.12,0,0,1,.22.09c.07.11-.16.21-.21.32s0,.36-.22.37-.25-.17-.27-.17-.3.19-.39.17l.12.15c.13-.2.31-.16.45,0s.06.13.11.16.17,0,.12.12-.76.24-.81,0c0-.07.08-.13.05-.18l-.21-.23a2.09,2.09,0,0,0-.33-.07,1.58,1.58,0,0,1-.42-.24c-.05,0-.11-.15-.14-.16s-.18,0-.17,0,.19.26.22.32.13.46.22.37c.06-.41.59-.12.64.16,0,.07,0,.25,0,.32s-.12,0-.17,0-.26,0-.38,0-.12-.06-.19-.06,0,.29.07.37c.05-.31.38-.3.61-.2a.71.71,0,0,1,.43.64c-.1,0-.2,0-.3,0s-.33.22-.46.26-.42,0-.4-.27c0-.06.11-.2.1-.22s-.21-.09-.18-.22c-.06,0-.08.13-.17.16s-.25,0-.36,0-.23.23-.28,0a.74.74,0,0,1,.17-.61.63.63,0,0,1-.33-.81c.06-.17.16-.17.33-.12v-.2a1.82,1.82,0,0,1-.4-.11c-.16-.07-.3-.19-.47-.26,0,.2.07.14.19.21s.14.35,0,.52a1.09,1.09,0,0,0-.14.21c0,.1.07.25-.07.24a.72.72,0,0,1-.56-.53c0-.28,0-.61.37-.48,0-.1,0-.26,0-.35s-.26-.2-.31-.25c.09.36-.33.51-.23.85a.69.69,0,0,1-.6-.94c.11-.18.29-.07.31-.08s0-.25,0-.33a1.57,1.57,0,0,0-.63-.21c-.06,0-.18,0-.18.06s.09.34.1.47,0,.16,0,.24.16.32.18.53-.09.52,0,.71a1.37,1.37,0,0,0,.22.27c.05.07.12.26.16.29s.11,0,.16.06a.72.72,0,0,1,.32,1h.85a4.75,4.75,0,0,1,1.28.51c.26.1.54.19.81.28.06,0,.08.1,0,.12l-4.72-.12a.7.7,0,0,0,.81.43c.43-.15.58-.51,1.15-.27.08,0,.16.13.22.15.27.09.78-.29,1.19-.17s.41.26.88.2c.07,0,.31-.13.31,0s-.58.18-.71.17-.16-.06-.23-.07-.08,0-.08,0,.31.2.36.26.11.24,0,.27-.06-.06-.09-.1-.28-.15-.39-.26-.22-.35-.24-.36a.39.39,0,0,0-.15,0l-.57.23a1.62,1.62,0,0,1,.62,0c.1,0,.37.18.26.29a1.36,1.36,0,0,0-.33-.14c-.21,0-.41,0-.63,0a1.16,1.16,0,0,1-.35-.18c0,.37.32.32.6.34,0,0,0,.09,0,.1s-.63,0-.69-.1.11.17,0,.2-.18-.14-.2-.2c-.06-.21.08-.26.08-.33s-.19-.26-.27-.2c.13.14,0,.28.09.44s.16.24,0,.23-.19-.38-.25-.47-.35,0-.43.12,0,.08.1.15.15.32.24.35a3.14,3.14,0,0,0,.81,0c.3,0,.39-.26.79-.19.09,0,.17.09.26.1s.32-.16.51,0-.16.08-.19.08-.22.1-.35.1-.33-.15-.51-.1l.35.14a.63.63,0,0,1,.19.24s0,.07,0,.06-.24-.27-.41-.22c0,.11-.05.22-.05.31s.06.21,0,.21-.12-.15-.13-.2.07-.19,0-.31l-.09-.06h-.51l.3.21a.49.49,0,0,1,.12.32c0,.06-.07.34-.15.27s0-.64-.29-.57l-.05.4c0,.09.16.22.15.28s-.24-.05-.28-.12c-.13-.24,0-.64-.15-.73s-.18.47-.1.58.15,0,.19.14.08.38-.06.28,0-.14-.09-.19-.13-.06-.21-.14-.07-.28-.1-.33-.18.1-.17.18.15.25.17.35,0,.3-.15.29c0-.21-.09-.35-.18-.52a.09.09,0,0,0-.08.11c0,.1.16.17.13.36s-.1.21-.16.15,0-.15,0-.18-.05-.33-.18-.17.11.35-.14.37c0-.17-.1-.29,0-.45s.16-.09.19-.13,0-.12.06-.17.11-.09.15-.14,0-.1.07-.14.18-.14.27-.22-.09,0-.13-.07-.13-.19-.21-.31a.77.77,0,0,0-.43-.3.37.37,0,0,0,.16.39c.07.06.15,0,.21.14s.14.44,0,.41-.06-.16-.11-.26l-.32-.19c.07.17.17.68.06.82s-.09-.25-.09-.3-.16-.38-.17-.56.05-.2.05-.29c0-.35-.18-.31-.42-.45s-.18-.15-.27-.21a1.65,1.65,0,0,0,.28.84c.18.27.44.41.46.76a2.26,2.26,0,0,0,0,.58s.16.34,0,.29a.82.82,0,0,1-.22-.52c0-.14.07-.28,0-.42s0,0-.07,0-.15.1-.15.15.36.42.18.61-.08-.11-.11-.16-.12-.2-.14-.19a1.48,1.48,0,0,0-.05.32s.05,0,.1,0,.08.12.07.15-.11,0-.14,0-.19-.06-.19-.2a.41.41,0,0,0-.16.16s-.07.2-.12.11.24-.36.3-.47,0-.32.1-.47.18-.11.21-.22-.12-.22-.22-.28a.6.6,0,0,1-.14.36s0,0-.06.07,0,.34-.12.36-.05,0-.05,0,0,.16,0,.21-.07.36-.15.28l0-.24a1.81,1.81,0,0,1,0,.4s0,.09-.08.07-.05-.35-.06-.42l0,.17s-.07,0-.09,0a.82.82,0,0,1,0-.44s-.09,0-.1,0,0-.23,0-.29a1.59,1.59,0,0,0-.16-.32s0-.18-.06-.18c-.44.26-.07.34,0,.55s0,.28.05.38.39.25.3.53c-.14,0-.1-.07-.15-.16s-.1-.09-.14-.14c0,.17-.19.22-.33.25,0-.13.15-.18.17-.24s0-.23,0-.31-.14.13-.16.18-.06.28-.13.17a.46.46,0,0,1,0-.26c.05-.11.27-.26.18-.39l-.14-.14c-.13,0-.1.49-.12.57s-.18.42-.26.34.13-.44.14-.53a1.8,1.8,0,0,1,.05-.52c.07-.18.23-.27.34-.41a2.07,2.07,0,0,0,.46-.94c-.13,0-.21.13-.34.19s-.31.1-.35.17,0,.42,0,.62-.17.29-.19.45,0,.31,0,.33-.09,0-.11,0a1.43,1.43,0,0,1,.11-.79l-.32.16c0,.05,0,.27-.16.26s0-.33,0-.38.25-.11.34-.23a.36.36,0,0,0,.08-.28.64.64,0,0,0-.46.27c-.07.1-.09.25-.23.31s-.16,0-.1.08a1.12,1.12,0,0,1,.18.13c.08.09.08.18.12.24s.1.06.14.12,0,.15,0,.19.11,0,.14.07.07.52,0,.54.07-.38-.12-.44,0,0-.08.09a.61.61,0,0,0-.07.1c0,.07,0,.23-.1.2s-.07-.2-.06-.26.13-.17.15-.25,0-.19-.1-.12-.15.25-.15.27,0,.39-.14.17.41-.54,0-.82c0,.17,0,.31-.2.42s-.16.05-.19.08,0,.15-.07.18-.09-.19,0-.27.2-.1.24-.21.1-.47,0-.51-.19,0-.22.06,0,.26,0,.38-.17.45-.31.44.07-.24.09-.31-.07-.3,0-.44c-.29,0-.36.33-.35.55a.33.33,0,0,0-.1,0,2.19,2.19,0,0,1,0-.37.54.54,0,0,1,.41-.35s-.23-.07-.26-.07-.32,0-.36.11,0,.47-.16.43,0-.15,0-.21a1.06,1.06,0,0,1,0-.31c-.12-.07-.38.2-.42.2-.19,0,.13-.32.2-.33L12.3,21c-.15-.05-.27,0-.39.07s-.41-.16-.67-.1c0-.3.37-.07.53-.07s.39-.16.6-.05l0-.15h.43c.09,0,.2-.21.19-.3a1.36,1.36,0,0,1-.39.17c-.21,0-.42,0-.62,0s-.51.21-.32,0a.93.93,0,0,1,.83-.13c0-.06,0,0-.05-.06s-.33-.18-.39-.2a.33.33,0,0,0-.24,0s0,.08-.06.12c-.21.28-.42.26-.59.49s-.15-.08-.07-.21.36-.17.44-.32a1.47,1.47,0,0,1-.75,0,1.58,1.58,0,0,1-.29-.12s0-.11,0-.12.17.07.23.08a1.07,1.07,0,0,0,.64,0c.1,0,.2-.11.29-.13.37-.06.61.14.93.23s.3-.08.56-.15a.83.83,0,0,1,.56,0c.34.16.47.46.91.31a.75.75,0,0,0,.42-.38c-.43,0-.85,0-1.28,0L12.59,20c-.78,0-1.55,0-2.32-.05,0,0,0-.06,0-.08a7.47,7.47,0,0,1,.77-.23,6.63,6.63,0,0,1,1.4-.48c.28,0,.57,0,.85,0l0-.37a.83.83,0,0,1,.18-.42c.06-.07.2-.12.25-.19a1.08,1.08,0,0,0,.08-.19c.07-.1.17-.18.23-.27s.09-.23.16-.33.15-.12.18-.19a6.5,6.5,0,0,0,.15-.72,3.21,3.21,0,0,1,.18-.87h-.39a1.29,1.29,0,0,0-.31.08c-.23.08-.23.18-.19.41a.24.24,0,0,1,.31.15.71.71,0,0,1-.68.87c0-.08,0-.16,0-.23s-.33-.43-.18-.66l-.23.16c-.06.11-.13,0-.15.2,0,.33.06.17.2.22s.17.31.15.45a.72.72,0,0,1-.67.58c.07-.23,0-.26-.09-.42s-.2-.39,0-.54a.55.55,0,0,1,.25-.06s0-.16,0-.2a2.57,2.57,0,0,1-.49.26c-.07,0-.38.09-.39.11s0,.13,0,.18c.31-.13.37.22.34.45a.57.57,0,0,1-.32.43c-.17,0-.08-.08-.11-.16s-.4-.26-.29-.52.19-.12.22-.15,0-.16,0-.14a1,1,0,0,0-.41,1c0,.14.07,0,.1-.07s.34,0,.43.05l.1.17a.64.64,0,0,1,0,.49c-.08.23-.13.09-.24,0s-.26.06-.47-.13c0,0,0-.12-.09-.08s-.12.22-.2.23a.29.29,0,0,1-.07.48c-.26.11-.53-.23-.77-.26s-.16,0-.25,0a.76.76,0,0,1,.41-.67c.24-.12.62-.17.68.17.14-.09.08-.3.12-.45,0,0,0,.06-.07.09s-.28,0-.41,0-.34.21-.26-.23.5-.66.73-.24c.1-.08.11-.22.17-.32a3.65,3.65,0,0,1,.29-.37c-.2-.09-.21,0-.33.1a1.34,1.34,0,0,1-.49.25c-.09,0-.2,0-.28.05a1.73,1.73,0,0,0-.25.21s0,.08,0,.12c0,.2-.3.25-.45.23s-.32-.12-.35-.22.09-.08.16-.14.15-.33.4-.25c.08,0,.13.24.23.07s-.1-.12-.18-.17a1.43,1.43,0,0,1-.16-.13s0,.21-.3.17-.15-.25-.2-.39-.4-.27,0-.37a.68.68,0,0,1,.52.07c.13.08.25.18.14.34s-.09.06-.08.09a.83.83,0,0,0,.34.16s-.07-.11-.08-.16,0-.12,0-.18-.21-.17-.15-.25.27-.08.35-.07.23.09.36.08c-.17,0-.44-.53-.52-.57s-.1.17-.23.23c-.36.15-.45-.42-.66-.53s-.25,0-.07-.2a.76.76,0,0,1,.87-.11c.22.14,0,.38.06.4l.2.14c.1.09.18.21.28.31,0-.29.28-.4.24-.67.36,0,.62.77.29.87-.08,0-.21,0-.13.12a2,2,0,0,0,.26.14,1.1,1.1,0,0,0,.92-.09c-.17-.1-.18,0-.3.06-.32.09-.5-.44-.49-.69,0-.1.08-.4.17-.45s.09.1.18.19.35,0,.51.4c0,0,.05,0,.05,0a.29.29,0,0,1-.15.27c.29.22.57-.22.79-.37-.06,0-.23-.18-.26-.18s-.11.06-.19.07c-.4,0-.35-.31-.43-.56s-.16-.17-.18-.23c-.06-.21.48-.17.61-.13s.49.3.5.51-.14.2-.14.22.15.14.21.14.46-.42.57-.49a1.26,1.26,0,0,1,.68-.23,2.11,2.11,0,0,1-.32-.83c0-.1,0-.21-.1-.25a.22.22,0,0,0-.28.13s0,0,0,0,.14,0,.16.13a.69.69,0,0,1-.56.78c-.26,0-.08-.11-.08-.23s-.1-.25-.1-.38,0-.29.16-.32.18,0,.21,0,.08-.19.1-.22c-.26,0-.62-.17-.77.13.43.2,0,.64-.27.72-.08,0-.43.05-.47,0s.07-.12.1-.16-.08-.69.31-.68c.14,0,.18.15.26,0s-.27,0-.31,0c-.24,0-.45-.18-.68,0a.25.25,0,0,0-.15.31c.5-.14.5.57.23.83s-.17,0-.25-.12-.15-.09-.22-.17a.44.44,0,0,1-.1-.35.21.21,0,0,0-.06.1s-.05.32-.05.34.14.08.09.24-.51.38-.73.29c0-.1.07-.13.09-.22s0-.19.06-.31.05,0,0,0l-.29.18c.19.51-.74.25-.67,0,0-.05.08,0,.12,0s.1-.12.15-.15l.17-.09c-.21-.16-.12.06-.32.09s-.27-.25-.35-.42-.19-.15-.12-.23.9-.08.79.27c0,.08-.14.07,0,.17a.62.62,0,0,0,.62,0l.09-.08a.16.16,0,0,0-.09-.06s-.11.12-.22.12c-.26,0-.26-.31-.34-.45s-.25-.13-.08-.24l.28-.1a.66.66,0,0,1-.69-.67c.09,0,.13.07.23.05s.2-.15.31-.17c.26-.05.45.07.42.34,0,0,.06,0,.07,0h.43c-.07-.08-.09-.22-.17-.28l-.26-.16c-.13,0-.21.2-.41,0a.62.62,0,0,1-.12-.51s.08-.26.11-.26.11.12.15.15.2.05.28.11.08.13.15.18v-.36s0,0,0-.06c-.23.06-.4-.14-.26-.35s.29-.23.35-.32,0-.16.06-.19.34.28.36.39c.06.28,0,.61-.36.49a1.75,1.75,0,0,0,.1.82s.1-.08.1-.08a.36.36,0,0,1-.15-.28c0-.21.26-.23.37-.34s.06-.25.19-.14a.74.74,0,0,1,0,.84c-.15.14-.27,0-.3,0s-.09.2-.08.25.58.56.66.49-.14-.14-.22-.21-.08-.32,0-.46.16-.17.19-.24,0-.41.27-.13a.81.81,0,0,1,.22.81c0,.08-.07.16-.15.18s-.14-.05-.18,0,0,.09.06.12a1.44,1.44,0,0,0,.7.07c.07-.12-.11,0-.16,0-.22,0-.25-.21-.18-.38s.28-.29.22-.54c.33,0,.68.53.51.79s-.31,0-.23.16a6.43,6.43,0,0,0,.69,0c0-.16,0-.07-.13-.08-.42,0-.27-.81,0-.92s.07.25.27.31l.17.27a2.9,2.9,0,0,1,.5-.8s-.16-.14-.19-.17-.08-.2-.26-.17c.21.36-.25.49-.52.44a.65.65,0,0,1-.52-.46c.37.07.4-.46.8-.37l.19.12c-.15-.34-.62-.4-.95-.37a.41.41,0,0,0-.34.16s.21,0,.25.18a.59.59,0,0,1-.63.63c-.12,0,0-.12,0-.21s-.23-.37,0-.56a.45.45,0,0,1-.27-.1.29.29,0,0,1-.48.1c-.17-.18,0-.5,0-.71s-.25-.32.07-.33a.8.8,0,0,1,.77.61c0,.14-.06.14-.1.25.25,0,.45-.14.7-.15,0,0-.11-.17-.13-.2s-.09-.21-.1-.22a.37.37,0,0,1-.34,0c-.21-.13-.09-.3-.11-.47s-.09-.19-.09-.3a.58.58,0,0,1,.58,0,2,2,0,0,0,.26.18c0-.11,0-.25,0-.36Zm.5.68s-.21.1-.36,0,0-.07-.06-.07c.06.19-.18.22-.22.27s.21.38.27.4.26,0,.35,0,.22.12.34.09c0-.24-.1-.32-.22-.49a1.81,1.81,0,0,1-.1-.2Zm5.79.34a.21.21,0,0,1-.22-.27s0,0-.06.08a.34.34,0,0,1-.35,0c-.16.25-.39.42-.41.74a1,1,0,0,1,.37-.14c.09,0,.33,0,.35,0a2,2,0,0,0,.33-.41ZM16.66,12c0-.19-.09-.36-.3-.32a.2.2,0,0,1,0,.27Zm.29.63a1.66,1.66,0,0,0-2.46,1.92c.06.18.4.78.59.77a1.51,1.51,0,0,0,.48-.16c.08-.08.14-.34,0-.41,0,.09-.12.18-.15.08s0-.27,0-.36a5.11,5.11,0,0,1-.07-.66.5.5,0,0,1,.18-.4s.11,0,.13,0,0-.26.13-.38a.51.51,0,0,1,.58,0c.12.12.06.33.09.37a.43.43,0,0,1,.15.06.56.56,0,0,1,.14.4s0,.21,0,.24-.05,0-.05,0a1.15,1.15,0,0,1-.05.4c0,.11,0,.24,0,.33s-.13,0-.14-.05-.1.27,0,.37a1.24,1.24,0,0,0,.51.2,1.19,1.19,0,0,0,.18-.15A1.66,1.66,0,0,0,17,12.66Zm-5.32,1.06c0-.06-.28-.24-.32-.3a3.79,3.79,0,0,0-.6,0s0,.14,0,.22-.15.08-.21.15c.24,0,.7.33.42.55,0,0,.07,0,.09,0s.43-.64.63-.66Zm3.44,2.94s0,0-.05,0a2.44,2.44,0,0,1-.35,1c-.07.07-.23.15-.29.25A2.55,2.55,0,0,0,15,17.8a.21.21,0,0,0,.11-.07,1.79,1.79,0,0,0,.06-.66,1.76,1.76,0,0,0-.1-.41Zm5.63,1.6c0-.1,0-.26,0-.37a1.51,1.51,0,0,0-.19-.41s-.21-.23-.23-.2c-.07.23.17.13.21.32s-.36.38-.34.65c0,0,.19-.18.37-.06s.08.09.12.13S20.7,18.28,20.7,18.26Zm-7.24,2c-.09,0-.3.12-.29.2s.1.12.09.23-.12.28-.21.28,0-.16,0-.22,0,0,0,.05a1,1,0,0,1-.34.08s-.35-.07-.26,0l.34.16a3.59,3.59,0,0,0,.92,0c.06,0,.14-.24.21-.31a2,2,0,0,1,.16-.14c-.1-.07-.24-.26-.37-.22s-.09.43-.3.49-.07-.1,0-.17,0-.33.14-.48Zm2.21,1.86c0-.08,0-.11.05-.19a6.4,6.4,0,0,0-.06-1s0-.08,0-.08a.82.82,0,0,0-.07.67,1.72,1.72,0,0,1,.08.48s0,.09,0,.08Zm.47-1.22s-.07,0-.05,0A6.68,6.68,0,0,0,16,22.12l.06-.35a1.23,1.23,0,0,0,.13-.63,1.37,1.37,0,0,0-.07-.24Z" transform="translate(-0.18 -0.18)"/></svg>