<svg id="Layer_1" data-name="Layer 1" xmlns="http://www.w3.org/2000/svg" viewBox="0 0 504.37 504.37"><defs><style>.cls-1{fill:#cca85c;}.cls-2{fill:#103b58;}</style></defs><rect class="cls-1" x="73.86" y="73.86" width="356.64" height="356.64"/><rect class="cls-2" x="77.68" y="77.68" width="356.64" height="356.64" transform="translate(-109.85 252.19) rotate(-45)"/><path class="cls-1" d="M209.6,162.57c.42-2.67,4.59-9.61,7.64-9.56,1.72,0,.87,1.9,1.07,3.23.42,2.67,4.06,4.59,5.31,7.32.35.76-.06,2.1,1,2.38.86-2.87,3-5.14,4.9-7.36.22-.25.92.08.63-.93-2.15-.14-3-2.94-2.6-4.77.93-4.14,6.78-2.58,9.72-3.32,2.52-.64,4.51-5.17,5.12.78s-4.21,16.1-10.65,9.28l-3.57,6.51.21.59c2.34-2.73,5-.84,7.86-1.21,1.94-.27,2.58-1.94,4.58-1.55,1.28,5.2-3.24,13.09-8.89,13.07-3.36,0-3.15-3.21-3.56-3.2-3.59,0-2.85,5.44-2.46,7.61.16.88,3.18,10.11,4.24,9.38-.21-1.27,1.51-1.87,1.58-2,.15-.26-1.47-1.51-1.74-2-2.34-4.17,1.33-6.89,4.9-8.07,1.88-.62,3.93-.13,5.54-2,.64-.72.79-2.69,2.31-1.73.95.6,1.35,6.75,1.25,8-.32,4-4.91,13.24-9.61,8.9-.66-.62-.6-2.5-1.75-1.1-2.21,2.67,2.33,5.85,4.49,6.92l12.77-6c-2.22-1.24-3.92-3.44-3.55-6.13,5.34,1.18,5.94-5.13,10.85-5.16.62,0,1.14.52,1.79.41-1.39-2.18-4.37-2.15-6.13-3.93-2.39,3.82-5.93,1.8-7.59-1.5a12.16,12.16,0,0,1-.62-9.1c1.9-6,2.67-1.09,4.31-.12a30.34,30.34,0,0,0,5.29,1.62c-.8-.8-2.81-5.91-3.15-6.16s-2.39.68-4.1-.21c-3.85-2-.9-10.3,1.63-12.6a24.39,24.39,0,0,1,4.72-2.69c2.18-.33.63,2.64,1.12,4.26a12.47,12.47,0,0,0,2.75,2.77c.84.38.6-1.25,1.1-1.86,1.49-1.81,6.71-1,9.06-2.87.84-.67,1.25-2.8,2.36-.68,1.84,3.49.24,11-3.26,13.1s-3.8-1.12-5-1.33-3.79,4.68-4,5.78c-.5,2.66.16,7.57,1.85,9.74.71.91,2.14-.94,2.4-1.54.07-.18-1.79-.9-2-3.2-.46-6.45,7.39-4.7,10.67-7.45.51-.43,1.14-2.3,2.3-1.36.75.61.92,6,.79,7.23-.54,4.64-6.78,13.33-11.41,7.75a14.76,14.76,0,0,0,0,1.76c.24,1.07,4.41,4.88,5.37,6.29a29.61,29.61,0,0,1,3.61,7.63c.2.84-.09,2.4.16,2.82.06.1,1.36.5,1.79.77.76.49,4.48,3.11,4.75,3.18,1.25.34,5-2.33,5.66-3.27a3,3,0,0,0-.61-3.77c-5.53,7-10.52-3.81-10.5-8.9a17.16,17.16,0,0,1,.93-4.63c2-5.79,2.34-.94,4.48.43,1.22.78,2.75.65,4,1.15,3.38,1.38,6.66,3.68,4.95,7.88-.3.75-2,2-2,2.27a19.48,19.48,0,0,0,1.12,2.18c.9.66,3-4,3.34-4.75,1.17-2.72,3.49-9,1-11.25-2.16-2-1.46,2.23-4.94,2.22-5.24,0-8.91-7-8.67-11.7.21-4.21,2.57-.46,4.89,0,2.77.58,5.46-1.37,7.73,1.76.43-.86-2.56-6.7-3-6.94-1.21-.48-1.42.85-2.36,1.22-6.59,2.62-9.8-10.4-6.72-14.82,1.69.12,2.63,2.18,3.92,2.59,3.49,1.13,10.42-.36,9.65,5.63-.3,2.31-1.3,2.14-2.91,3.44,2.36,2.14,3.61,5.09,5.33,7.69.43-3.27,4.79-5.14,5.89-7.14.92-1.67.1-4.68,2.42-4.74a21.71,21.71,0,0,1,3.33,3c3,3.73,3.51,8.65,2.78,13.23,3.05-2.68,5.77-4.62,10.07-4.34a22.81,22.81,0,0,1,3.72.81c.64.93-1,2.39-1.32,3.17-1.37,3.25,1.48,9.23-4.42,9.82-1.62.16-2.37-.8-3.13-.78-1,0-3.37,4.88-4.52,5.74l7.87,3.18,2.79.17c0-.94-.89-1.33-1.11-2.25-1.37-6,8.69-12.2,14.07-10.51,3.4,1.06,0,2.63-.31,4.69-.68,4.13,2.29,14.8-6,12.63-2.44-.64-2.43-2.73-2.75-3s-3.67,1.92-4.73,1.19c3,3.39-.41,6-.78,8.52-.32,2.28,1.84,4.13-2.14,3.69a11.39,11.39,0,0,1-6.49-4.18c-2-3.11-2.58-9.19,2.69-8.43-.59-2.48-2.79-3.06-5-3.46-4.24-.74-10-.25-13.49,2.5-.65.51-3.89,3.84-3.2,4.5,1,1,1.42-1.42,1.79-2,1.08-1.56,2.56-1.74,4.35-1.61,5.2.36,4.95,7.24,10.45,6.34-1.13,6.45-10.89,9-15.77,5.31a4,4,0,0,1-1.6-4.65c.09-.37,1.4-.1.13-1.47-1.67-.33-4.61,4.33-6.28,5.16,2.72,4.64,6.3,9.09,6.93,14.61l1.64-4.08c2.26-2.19,3.82-3.15,4.66-6.41,5.45.83,7.35,13,2.46,14.75-.78.28-3,.76-3-.3-2.69,2.76,1.93,1.48,4,1.56,1.31.06,5.57,1.07,6.33,0,1.21-1.64-1.08-1-1.92-1.28-3-.89-2-6.42-.82-8.57,1.46-2.73,4.83-5.14,8.05-4.79-1.51,4.63,5.52,8.94,2.71,13.18-1.88,2.84-5.27.42-5.48.64v1.58c.39.41,10.42-.2,11.21-.75a4.63,4.63,0,0,0,.65-2.4c-.26-.25-3,1.51-4.43-1.3-2.45-4.77,1.52-14.9,7-15.69.8-.12.53.06.6.59a15.61,15.61,0,0,0,.17,3c.35,1.2,2.23,2.65,2.93,4.18,1.4,3,2.23,6.35-1.45,7.92-.64.27-2.2.38-2.43.54s.28,1.85,0,2.34a24,24,0,0,0,7.5-4.14c1.8-1.49,3.58-2.88,3-5.36-.77-3.24-3,.6-5.25-1.27-1.29-1.06-2.19-6.14-2-7.89.18-1.49,2-7.16,4-6.62.6.16.57,1.92,1.17,2.79,1,1.47,4,2.34,5.15,3.94l1,3.14c.1-1.24,1.37-7.32.79-7.9-.24-.24-4.2.88-5.35-2.34a10.28,10.28,0,0,1,4.29-11.55c3-1.78,1.78.88,2.87,2.8.7,1.23,3.84,3.34,4.91,5,1.56,2.38.59,5.11-2.2,5.71-.51.11-2.14-.08-2.14,0v6.51c0,.09-.76.53-.2.59.8.12.72-1.22,1.44-2.12,1.74-2.19,3.47-1.6,5.36-2.53,1.09-.54,1.21-1.57,1.69-1.87,2.53-1.55,2.9,4.65,2.72,6.28-.27,2.46-2.68,7.51-5.58,7.26-1.23-.1-2.33-1.31-2.92-1.41a44.25,44.25,0,0,0-4.85,2.11c-.87.63-1.9,3.21-2.78,4.12.22.29,6.84.89,7.24.75.87-.3.59-1.76.95-2.62,1.23-2.91,5.31-2.64,7.71-1.59,1.14.5,2.56,2.38,3.74,2.61s3.54-1.75,3.59.17c0,1.62-2.06,5.08-3.27,6.23-2.5,2.38-8.32,4.36-11.43,2.31-2.31-1.52-.85-4.51-1-4.69a34.51,34.51,0,0,0-4.16-.79c-.67-.08-4.6-.31-4.94-.23-.53.13-5.71,3.89-5.52,4.17,3.63.73,6.89,10.36,9.68,11.06.26.06,1,.16,1-.21.21-1.12-.67-.12-.76-.21a15.87,15.87,0,0,1-.72-1.81c-.1-1,1.42-3,2.18-3.7a10.48,10.48,0,0,1,9.28-2.28,14.92,14.92,0,0,1,3.27,1.48c1.12,1.8-1.14,1.94-1.82,2.67-2.33,2.54-1.67,8.4-7.49,7-2.14-.51-1.69-1.95-2-2.17a1.38,1.38,0,0,0-.6,2.38c2.75,2.84,8.59,2.32,11.65.17,1-.71-.14-.44-.37-.85-1.75-3.18.22-4.88,3.24-5.76,2.44-.72,4.1-.92,6.51,0,5.4,2.13,1.88,2.69.51,4.62-1.85,2.59-1.92,7.9-6.83,6.44-2.16-.64-.86-4-3.84-1.89,2.38,1.3,3.48,4.73,6.32,4.35-.14,4.29-7.31,6.37-10.42,3.91-1.69-1.35.16-3.18,0-3.52s-3.85-3.62-4.57-3.54c2.09,1.88.8,3.57,1.27,5.64.26,1.16,1.77,2,1.48,3.42-3.3,1.69-10.53-1.05-11.36-4.61-.76-3.31,1.66-3.14,1.77-3.85.06-.35-.56-1.74-.63-2.43-.14-1.39.39-3.08-.63-4.1A10.58,10.58,0,0,1,332,240c-1.15,1.44-3,1.78-4,3.16-.61.86-.85,2.58-1.15,2.8-1.49,1.09-3.91-2.34-4.45-3.51-2.26-4.9-.92-13.09,6-10.94.42-2.7-.36-3.81-2.64-5.06-4.31-2.36-10.32,1.56-15.13.73,1,3,2,.32,4.11.41,5.34.23,3.19,7.33,3.87,10.36.34,1.48,2.13,1.87,1.9,3.44a17.22,17.22,0,0,1-6,.3c-4.05-.65-11.38-7.07-7.23-11,.83-.79,2.49-.63,2.2-1.35-2.37-3.73-7.79-3.51-11.65-2.56-.34.08-.88-.17-.59.57.07.17,1.5,2.82,1.64,2.91.4.23,1.67,0,2.42.15,2.83.71,3.27,3.33,2.95,5.93-.24,1.89-1.75,4-1.88,5.27-.13,1.4,1,2.3.8,3.71-4,.38-8.05-2.4-9.64-6-1-2.19-2-6.75.18-8.43.74-.58,2.1-.33,2-1.2-.4-2.58-3.86-2.9-5.33-1-.69,5.61-3,10.74-5.73,15.58.17.79,3.85.92,4.75,1.19,5.54,1.69,8.32,6.79,12.28,10.23,2.14,1.87,2.78,1.27,5.09-.36.2-.87-1.41-1.14-1.71-1.86a4.71,4.71,0,0,1,.75-4.62,13,13,0,0,1,12.51-5.46c8,1.08,2.7,3.35,1.57,5.71-1.3,2.72-1,8.35-5.12,9.1-2,.35-4.12.15-5.44-1.46-.41,1-4.69,2.75-4.15,3.52a2.43,2.43,0,0,1,1,.39c1.52,1.44,5.81,6,7.54,6.3,1.07.18,3.45.4,3.34-1.15-3.91-2-.26-7.6,2.76-8.89,2.62-1.13,3,.1,5.31-2.59.75-.89.78-2.86,2.71-1.58,1.18.78,2,6.24,1.87,7.74-.24,4.38-3.61,11.67-9,9.78-.5-.17-1.34-1.69-1.55-1.7-.83-.08-3,.36-1.6,1.29,3,2,8.75,2.33,12.24,1.78,1.52-.24,7.1-1.9,5.82-4.25-3.86,1.26-4.67-2.14-4.35-5.34a10.44,10.44,0,0,1,5.18-7.85c3.28-1.62,1.9.87,2.5,2.94.37,1.25,2.43,3,2.81,4.3.32,1.09,0,2.16.37,3.18.79-.54,1.16-1.49,1.82-2.13,1.09-1,5.21-3.82,5.71-4.59.69-1.09-1.78-3.77,1.23-5.85,2-1.39,5.86-1.58,8.2-1.23s7.06,3.54,6.94,6.3c-4.81-1-6.23,7.55-10.09,8.28-1.31.24-3.64,0-4.55-1.06-.68-.78-.94-3.63-1.76-3.26s-5,5.91-6.44,7.11c-.93.77-2.35,1.26-3.24,2.18l5.31-1.41c1.63-.14,7.38-.11,6.49,2.53-.16.47-1.79,1.21-2.35,2.41s-.41,2.42-.87,3.47c-.34.79-1.31,1.12-1.27,1.88,1.16.21,4.7-1,5.16-2,.31-.66-2.45-2.14-.79-4.73s7.19-3.61,10.07-3a23.83,23.83,0,0,1,3.46,1.47c1.08,1.76-2.6,3.36-3.28,5.08-.75,1.91.16,5.8-3.57,5.94-2.9.11-3.93-2.69-4.34-2.8s-4.81,3.14-6.11,2.78l1.78,2.36c2.17-3.16,5-2.45,7.31.2.62.73.93,2.09,1.76,2.6s2.61.11,1.91,1.83c-1.5,3.68-12.12,3.9-13,.16-.25-1.12,1.23-2,.82-2.79-.11-.23-3.18-3.62-3.39-3.76-.82-.49-3.9-.69-5.22-1.1a26.43,26.43,0,0,1-6.82-3.85c-.77-.65-1.72-2.35-2.16-2.57-.82-.4-2.92-.4-2.74.75.06.4,3,4,3.59,5.11.4.81,2.05,7.28,3.48,5.8.86-6.45,9.39-1.82,10.18,2.65a50.7,50.7,0,0,1,.51,5.06c0,2.71-2,.61-2.77.35-2.42-.75-4.19.61-6.09.49-1.09-.07-1.92-1-3-1.06.11,1.93-.55,4.7,1.17,5.92.76-5,6-4.7,9.76-3.23s7.17,6.25,6.8,10.31c-1.59.47-3.15-.25-4.82.12s-5.19,3.51-7.37,4.07c-3.2.84-6.56-.56-6.25-4.26.09-1,1.69-3.16,1.49-3.44-.31-.44-3.34-1.51-2.76-3.57-1.05.69-1.37,2.17-2.74,2.59-1.77.54-4-.13-5.73.19s-3.68,3.67-4.47-.7c-.68-3.81.46-6.78,2.67-9.77-5-2.44-7.37-7.46-5.33-12.85,1-2.73,2.7-2.74,5.32-2v-3.15a26.08,26.08,0,0,1-6.3-1.8c-2.67-1.12-4.9-2.94-7.51-4.14-.54,3.32,1.06,2.36,3,3.48,3.47,1.94,2.13,5.48.58,8.24-.57,1-2,2.47-2.26,3.27-.55,1.7,1.18,4.08-1.12,4-3.82-.19-8.21-4.9-8.84-8.58-.74-4.34.29-9.59,5.83-7.61-.42-1.57.52-4.08-.19-5.54-.3-.6-4.11-3.29-4.94-3.94,1.45,5.63-5.19,8.13-3.56,13.42-6.92.92-12.78-9-9.56-14.88,1.63-3,4.64-1.1,4.82-1.3-.36-1.52.7-4-.06-5.26s-8.33-3.31-10-3.42c-.95-.06-2.87-.38-3,1s1.53,5.49,1.6,7.52c.05,1.43-.45,2.54-.37,3.87.15,2.43,2.42,5.11,2.74,8.35.34,3.55-1.35,8.42-.27,11.33.62,1.68,2.47,2.89,3.52,4.38.77,1.09,1.94,4.14,2.48,4.63s1.76.51,2.58,1c6.12,3.41,8.48,9.57,5.11,16h13.63c5.33,0,15,5.93,20.34,8.09,4.19,1.71,8.62,3.08,12.92,4.47,1,.28,1.34,1.65.25,2l-75.19-1.91c2,4.71,7.79,8.54,12.92,6.79,6.79-2.31,9.32-8.07,18.36-4.31,1.28.54,2.49,2.09,3.49,2.44,4.36,1.49,12.42-4.67,18.94-2.75,5.69,1.68,6.54,4.2,14,3.31,1.27-.15,5-2.09,5-.15,0,2.48-9.29,2.84-11.28,2.57-1.29-.18-2.59-.91-3.74-1-.39,0-1.2-.14-1.19.42,0,.91,4.94,3.23,5.7,4.16s1.78,3.75.41,4.33-1-.94-1.59-1.56c-1.8-2-4.33-2.47-6.12-4.15-1.19-1.11-3.48-5.68-3.81-5.76a5.62,5.62,0,0,0-2.42.29l-9.16,3.67c3.81,0,6.24-.88,10,.49,1.57.57,5.9,2.82,4,4.64-1.42-.75-3.62-2.11-5.16-2.34-3.36-.5-6.57.72-10.08-.2-2-.53-3.77-1.86-5.5-3-.08,6,5.07,5.14,9.48,5.53-.06.39.11,1.46,0,1.57-.71.72-9.95.17-11.05-1.58-.22.27,1.8,2.69.19,3.16-1.15.33-2.9-2.17-3.16-3.14-.91-3.43,1.26-4.17,1.26-5.35,0-.88-3-4.05-4.22-3.16,2,2.26.6,4.51,1.3,7,.34,1.25,2.62,3.79.41,3.76-3.66-.05-3.1-6.09-4.05-7.62-1.54-2.5-5.46.53-6.75,2-1,1.09.61,1.24,1.58,2.39,1.2,1.42,2.42,5.13,3.85,5.62,2.12.72,10.54.78,12.91.46,4.67-.64,6.14-4.12,12.58-3,1.43.24,2.64,1.41,4,1.51,2.68.18,5.16-2.53,8.21-.05,2.69,2.19-2.51,1.19-3,1.21-1.55.1-3.55,1.58-5.58,1.57-2.61,0-5.21-2.34-8.09-1.57l5.5,2.19c.83.58,2.94,3,3,3.91.05.39-.09,1.09-.77.94-1.64-.35-3.91-4.29-6.57-3.5.37,1.7-.77,3.42-.81,4.95,0,.66.92,3.26-.18,3.33-.87.06-1.9-2.41-2-3.14-.27-1.73,1-3.12-.54-4.95a5.85,5.85,0,0,0-1.39-1h-8.09l4.75,3.35a7.59,7.59,0,0,1,2,5.13c-.05.9-1.15,5.38-2.39,4.16-.41-.41.6-10.16-4.74-9.08l-.79,6.48c-.17,1.4,2.56,3.52,2.39,4.36-.56,2.67-3.82-.76-4.45-1.87-2.11-3.74.63-10.19-2.29-11.53-4.2-1.94-3,7.4-1.59,9.1.73.88,2.29.86,2.89,2.25.42,1,1.36,6-.92,4.47-.48-.34-.57-2.19-1.32-3s-2.22-.87-3.39-2.14c-1.94-2.11-1.18-4.54-1.65-5.26-.85-1.35-2.77,1.54-2.7,2.86s2.47,3.94,2.74,5.58-.26,4.74-2.35,4.52c.65-3.34-1.47-5.58-3-8.28-.94.44-1.18.71-1.18,1.77,0,1.57,2.55,2.79,2,5.74-.19,1-1.54,3.41-2.61,2.35-.16-.15.2-2.29-.09-2.87-.89-1.25-.74-5.17-2.9-2.69-2.31,2.68,1.73,5.62-2.14,6-.43-2.65-1.63-4.68.06-7.24,1.1-1.66,2.59-1.44,3-1.93.28-.32.45-2,.94-2.82.69-1.15,1.88-1.38,2.5-2.24.47-.62.51-1.5,1-2.17,1.16-1.6,3-2.26,4.34-3.54-.5-.72-1.46-.61-2.11-1-2.26-1.53-2-3.16-3.24-5.06a13.22,13.22,0,0,0-6.89-4.76c-.37,2.81.28,4.66,2.56,6.32,1.18.86,2.39.79,3.36,2.16s2.17,6.94.21,6.52c-1.85-1.07-1.08-2.56-1.76-4.18L274,340.44c1.19,2.67,2.66,10.77,1,13-2,2.67-1.39-4-1.49-4.82-.37-3.14-2.51-6.1-2.66-8.81-.11-1.91.77-3.2.81-4.74.14-5.61-2.95-4.83-6.7-7.12-1.56-1-2.84-2.33-4.38-3.33.08,4.67,2,9.52,4.57,13.39,2.77,4.22,6.93,6.52,7.29,12.07.21,3.28-.77,5.72.16,9.32.11.43,2.59,5.36.61,4.52-1.81-.77-3.59-6.42-3.58-8.31,0-2.1,1.13-4.47-.34-6.67-.7-1-.9.48-1.19.75-.72.67-2.36,1.52-2.38,2.36,0,2.28,5.75,6.69,2.95,9.68-1.36,1.44-1.43-1.7-1.81-2.53-.2-.44-1.95-3.28-2.32-3,0,.77-1,4.95-.8,5.13a2.89,2.89,0,0,1,1.6.58c.4.36,1.31,1.83,1.17,2.38-.38,1.5-1.78-.3-2.23-.54-1.59-.83-3-.92-3.1-3.21a9.15,9.15,0,0,0-2.52,2.63c-.1.17-1,3.19-1.84,1.73-2.11-3.73,3.84-5.71,4.73-7.54,1-2.06.18-5.09,1.68-7.38.74-1.13,2.84-1.81,3.22-3.55.44-2.06-1.9-3.58-3.48-4.46.17,2.16-1.14,4-2.13,5.79-.13.25-.73.35-1.08,1.08-.58,1.24-.61,5.48-1.78,5.7-.3.06-.84-.45-.94-.32s.47,2.5.41,3.34-1.1,5.84-2.38,4.55l-.4-3.95a28.52,28.52,0,0,1-.52,6.41c-.17.73-.27,1.52-1.26,1.09s-1-5.58-1-6.71l-.4,2.76c-.56,0-1,.15-1.38-.39-.68-1-.74-5.78-.19-7.11-.38-.08-1.47.12-1.59,0s-.38-3.59-.67-4.66c-.64-2.25-1.78-3.22-2.5-5-.29-.71-.32-2.85-1-3-6.92,4.2-1.06,5.49.24,8.85.74,1.92.13,4.49.66,6,.94,2.68,6.29,4,4.83,8.42-2.2.49-1.57-1.11-2.42-2.51a19.29,19.29,0,0,0-2.11-2.23c.05,2.7-3.16,3.46-5.34,4-.54-2,2.4-2.81,2.71-3.84s-.38-3.61-.34-4.85a31.31,31.31,0,0,0-2.53,2.79c-.23.44-.87,4.55-2,2.75-.49-.77-.18-3.27.18-4.19.69-1.75,4.21-4,2.76-6.24-.09-.13-2-2.18-2.13-2.22-2.06-.54-1.68,7.93-2,9.1-.19.77-2.93,6.71-4.16,5.51-.31-.31,2.16-7,2.32-8.54.3-2.93-.38-5.41.76-8.32s3.63-4.28,5.42-6.44a33.9,33.9,0,0,0,7.3-15c-2.15.44-3.32,2.07-5.39,3.1-1.48.74-4.93,1.45-5.63,2.67-1.75,3.06.07,6.73-.45,9.81-.3,1.74-2.65,4.63-3,7.22-.16,1,.06,5-.13,5.2-.58.73-1.47.21-1.76-.73-1.18-3.86.48-9,1.79-12.65l-5.14,2.55c-.85.86-.13,4.39-2.54,4.15-1.2-.35,0-5.14.63-6.06,1.16-1.81,3.94-1.72,5.47-3.61a5.73,5.73,0,0,0,1.19-4.54c-2.73.06-5.73,2.21-7.29,4.37-1.2,1.67-1.45,4-3.76,4.93-.7.27-2.45,0-1.55,1.33a13.43,13.43,0,0,1,2.93,2c1.27,1.48,1.25,2.92,1.89,3.84.34.48,1.66.89,2.21,1.94s.36,2.32.81,3,1.77.65,2.3,1.16c1.49,1.44,1,8.2-.49,8.57-2.68.68,1.14-6.06-2-7-1.33-.42-.74.48-1.23,1.39a12.21,12.21,0,0,0-1.09,1.68c-.32,1.08.28,3.59-1.52,3.15-.95-.23-1.15-3.18-1-4.08.25-1.56,2.07-2.84,2.3-4.07s-.63-3-1.55-1.83c-.15.19-2.34,4-2.43,4.21-.34.94-.34,6.29-2.23,2.81-3-5.51,6.67-8.63.54-13.18-.5,2.73-.69,5-3.22,6.65-.82.52-2.46.84-2.93,1.41s-.41,2.37-1.14,2.81c-2.32,1.44-1.45-3.07-.75-4.31.93-1.62,3.07-1.66,3.79-3.32.55-1.24,1.52-7.48.52-8.22-.6-.44-2.94.32-3.36,1-1.21,2.06-.06,4.09-.2,6.1s-2.77,7.13-4.94,7c-2.92-.24,1.14-3.84,1.35-5,.45-2.37-1.06-4.66,0-6.89-4.55-.63-5.66,5.21-5.54,8.68-.38-.06-1.48.1-1.57,0a27.23,27.23,0,0,1-.22-5.94c.58-2.7,4-5,6.54-5.51.64-.61-3.61-1.17-4.13-1.2-1.83-.11-5-.33-5.66,1.87-.31,1.09.05,7.4-2.64,6.84-1.16-.25.19-2.49.2-3.36,0-1.41-.8-3.32-.4-4.94-1.9-1.05-5.93,3.09-6.57,3.11-3,.09,2-5,3.05-5.25l4.69-1.41c-2.43-.71-4.32.72-6.2,1.09-4.18.8-6.48-2.46-10.78-1.49.83-4.76,6-1.15,8.49-1.15,2.76,0,6.32-2.5,9.68-.83l-.4-2.36h6.91c1.37,0,3.07-3.42,3-4.74-2.11.94-3.83,2.31-6.23,2.66-3.39.49-6.59-.7-9.78-.31-1.1.14-8.2,3.41-5.2-.27,2.57-3.14,9.72-3.23,13.31-2.09.2-1.05-.22-.69-.79-1-1.42-.69-5.29-2.88-6.3-3.2s-3-.43-3.81.18c-.43.34-.57,1.28-1,1.81-3.4,4.46-6.63,4.14-9.45,7.83-1.47,1.93-2.3-1.23-1-3.26s5.75-2.79,6.89-5.15c-4.17,1.13-7.58,1.64-11.86.6a29.15,29.15,0,0,1-4.67-1.84c-.29-.46-.06-1.73.58-1.91s2.8,1.08,3.77,1.31a17.38,17.38,0,0,0,10.12-.42c1.59-.51,3.16-1.72,4.72-2,5.87-1,9.64,2.18,14.79,3.58,4.84,1.32,4.83-1.26,8.93-2.38a12.67,12.67,0,0,1,8.92.73c5.43,2.45,7.47,7.31,14.45,4.88,2.62-.92,5.81-3.43,6.73-6.11-6.78-.43-13.56-.19-20.36-.38-6.24-.18-12.68-.67-18.92-.82-12.31-.32-24.66-.05-36.94-.78a11.87,11.87,0,0,1,0-1.33c.15-.62,10.58-3.09,12.24-3.62,7.07-2.3,15.06-7.16,22.31-7.71,4.56-.34,9.11.61,13.66.23l-.41-5.94a14.42,14.42,0,0,1,2.9-6.77c1-1,3.21-1.84,4-2.91.61-.82.73-2.1,1.31-3,1-1.65,2.63-2.89,3.57-4.33s1.5-3.64,2.66-5.24c.77-1,2.34-2,2.83-3.09,1-2.3,1.82-8.63,2.35-11.47.87-4.66.9-9.59,2.89-13.9h-6.12a22.84,22.84,0,0,0-5,1.28c-3.68,1.37-3.61,2.89-3.05,6.62a3.67,3.67,0,0,1,5,2.34c1.67,7-3.7,14-10.89,13.85-.22-1.19.73-2.52.59-3.61-.33-2.5-5.37-6.84-3-10.6l-3.58,2.54c-.92,1.85-2.07.69-2.35,3.17-.61,5.4.87,2.83,3.17,3.53,2.63.8,2.6,4.94,2.38,7.16-.47,4.67-5.88,9.5-10.68,9.26,1.15-3.65-.13-4.07-1.39-6.71s-3.31-6.15-.22-8.52c1.52-1.16,3.82-.83,4-1s-.09-2.59,0-3.16a42.08,42.08,0,0,1-7.89,4.14c-1,.38-5.91,1.43-6.15,1.76-.42.6-.08,2-.17,2.79,4.91-2.06,6,3.57,5.5,7.27-.33,2.5-2.61,6-5.09,6.77-2.81.88-1.36-1.22-1.88-2.48-1-2.5-6.27-4.2-4.63-8.39.86-2.2,3.15-1.79,3.55-2.36s.24-2.56-.61-2.2c-4.16,1.77-8.44,11.92-6.63,16.11,1,2.23,1.17-.63,1.61-1.18,1.65-2.08,5.41-.6,7,.9.12.11,1.46,2.44,1.58,2.73,1.07,2.63,1.55,4.94.59,7.71-1.3,3.69-2.16,1.49-3.78.62-2.66-1.42-4.28.95-7.5-2-.56-.51-.83-2-1.55-1.4-.24.19-1.85,3.52-3.16,3.75,2.73,2,1.83,6.27-1.1,7.6-4.05,1.83-8.46-3.62-12.24-4.16-1.5-.21-2.59.4-4,.31-.26-4.21,3-8.65,6.64-10.55s9.89-2.76,10.75,2.65c2.28-1.39,1.34-4.77,2-7.1-.66.08-.48.89-1.19,1.37-2.2,1.48-4.34-.18-6.51-.21-3.59-.06-5.33,3.33-4.09-3.68,1.08-6.17,8-10.42,11.6-3.81,1.68-1.22,1.8-3.4,2.79-5.1,1.27-2.2,3.05-3.93,4.52-5.94-3.13-1.36-3.28.42-5.17,1.74a24,24,0,0,1-7.92,3.93c-1.45.36-3.13.06-4.42.73-.24.12-3.93,3.22-4.05,3.47s.55,1.16.63,1.82c.38,3.25-4.79,3.95-7.21,3.62-1.55-.21-5.17-1.89-5.66-3.43-.65-2.05,1.43-1.29,2.58-2.21,1.81-1.42,2.48-5.23,6.46-4,1.21.36,2,3.88,3.65,1.11.83-1.43-1.67-1.81-2.94-2.61-.71-.44-2.43-2.14-2.6-2.13-.33,0-.81,3.36-4.72,2.74-3.47-.55-2.33-4-3.2-6.28-1-2.56-6.32-4.32,0-5.92a10.25,10.25,0,0,1,8.2,1.23c2.17,1.24,4,2.8,2.34,5.36-.43.67-1.53.9-1.28,1.48s4.33,2.29,5.32,2.57c.51-.91-1-1.76-1.28-2.67s0-1.9-.27-2.88c-.41-1.36-3.27-2.62-2.42-3.94.71-1.1,4.34-1.29,5.57-1.18,2.18.16,3.73,1.47,5.71,1.4-2.67-.69-7-8.53-8.29-9.1s-1.47,2.69-3.56,3.56c-5.76,2.43-7.22-6.66-10.51-8.44-1.79-1-4-.32-1.13-3.21,3.27-3.28,10-4.26,13.91-1.67,3.38,2.23.72,6.08.92,6.37s2.59,1.69,3.14,2.21c1.61,1.51,2.91,3.42,4.53,4.94-.52-4.57,4.44-6.3,3.75-10.66,5.76-.65,9.9,12.31,4.68,13.95-1.28.41-3.32-.17-2.12,1.85a24.24,24.24,0,0,0,4.15,2.17c4.48,1.48,10.71,1.5,14.62-1.39-2.68-1.52-2.74.46-4.73,1-5.17,1.41-8-7-7.89-11,0-1.55,1.31-6.45,2.74-7.17,2.17-1.1,1.5,1.61,3,3,3.12,2.91,5.61.08,8.13,6.4.13.32.7.29.71.48a4.73,4.73,0,0,1-2.31,4.37c4.56,3.5,9.13-3.49,12.63-5.93-1-.14-3.81-2.83-4.2-2.9s-1.76,1-3.08,1.15c-6.4.55-5.51-5-6.85-9-.52-1.56-2.57-2.73-2.8-3.55-1-3.42,7.58-2.73,9.64-2.11,3.06.92,7.8,4.8,8.06,8.17.2,2.56-2.31,3.11-2.34,3.5-.09,1,2.52,2.09,3.43,2.08s7.32-6.64,9-7.8c3.51-2.43,6.62-3.2,10.86-3.57-2.79-4-4.08-8.6-5-13.33-.31-1.59.44-3.21-1.66-3.86-1.86-.58-3.78,0-4.36,2-.24.81.23.48.58.59,1.42.44,2.25.3,2.56,2.2a10.85,10.85,0,0,1-9,12.32c-4.18.75-1.25-1.74-1.27-3.67,0-1.36-1.5-3.9-1.59-5.93s.56-4.65,2.65-5.23c1-.26,2.72.16,3.21-.15.16-.1,1.37-3,1.64-3.49-4.19,0-9.91-2.67-12.23,2.17,6.87,3.14.39,10.2-4.35,11.46-1.32.36-6.84.78-7.52-.22s1.2-2,1.58-2.56c2-3-1.21-11,4.92-10.89,2.31,0,2.87,2.5,4.16-.17.06-.6-4.26-.61-4.83-.7-3.92-.66-7.19-2.86-10.93-.84-2.11,1.14-2.72,2.48-2.41,4.89,8.1-2.19,8.07,9.12,3.81,13.29-3.67,3.58-2.82-.14-4-1.83-.71-1-2.51-1.52-3.52-2.79a6.75,6.75,0,0,1-1.61-5.5,2.79,2.79,0,0,0-.9,1.47c-.13.62-.9,5.16-.88,5.44.14,1.3,2.16,1.31,1.49,3.86-1,3.93-8.15,6.14-11.76,4.64-.44-1.59,1.21-2.16,1.5-3.44.37-1.67-.09-3.1.9-5,.24-.46.91-.08.77-.68l-4.72,2.78c3,8.27-11.77,4-10.68-.21.21-.82,1.34-.11,2-.39s1.59-1.91,2.41-2.35l2.74-1.4c-3.47-2.54-2,.88-5.12,1.41-4.25.7-4.27-4-5.62-6.69-.73-1.47-3.1-2.35-1.89-3.62,3.19-3.38,14.27-1.29,12.56,4.27-.37,1.2-2.24,1,.59,2.72a10.51,10.51,0,0,0,9.91-.13,7.23,7.23,0,0,0,1.43-1.33c0-.13-.89-1-1.32-.95s-1.82,1.89-3.6,1.89c-4.13,0-4.12-4.93-5.39-7.2-.81-1.44-4-2-1.27-3.75l4.49-1.63c-5.75.33-11.46-4.73-11.06-10.67,1.41,0,2.17,1,3.71.79,1.23-.2,3.21-2.34,4.86-2.67,4.18-.87,7.18,1,6.83,5.44.43.15.87-.4,1-.4h6.91c-1.15-1.27-1.49-3.46-2.78-4.53-.24-.19-3.89-2.41-4.13-2.45-2-.22-3.31,3.1-6.45-.79a10.46,10.46,0,0,1-2-8.2c.09-.65,1.27-4.06,1.76-4.17,1.38-.31,1.86,1.92,2.43,2.38,1,.79,3.24.93,4.44,1.77s1.25,2.19,2.39,2.95v-5.73c0-.12.54-.56.39-1-3.74.9-6.49-2.3-4.16-5.55,1.26-1.76,4.54-3.74,5.54-5.12.68-.94.48-2.63,1-3,1.9-1.4,5.44,4.48,5.78,6.13.91,4.43-.12,9.73-5.74,7.93-.86,4.57.27,8.68,1.58,13,.65.38,1.52-1.28,1.52-1.38,0-.27-2.36-1.23-2.35-4.35,0-3.47,4.25-3.67,6-5.5,1-1,.87-3.9,2.93-2.18,2.88,2.39,2.71,10.8,0,13.39-2.37,2.24-4.3-.37-4.72-.36-.67,0-1.39,3.24-1.21,4,.48,1.94,9.18,8.93,10.49,7.88-.17-3-2.21-2.2-3.57-3.45-2.31-2.14-1.31-5,.08-7.33.74-1.26,2.48-2.66,3-3.72,1.17-2.42-.51-6.55,4.23-2.08a12.77,12.77,0,0,1,3.48,13c-.4,1.22-1,2.5-2.39,2.78-1.2.24-2.12-.76-2.85.26.38.55.42,1.32.95,1.8,1.12,1,10.65,2.11,11.25,1.13,1.16-1.9-1.77-.75-2.54-.75-3.6,0-4-3.33-2.91-6.09,1.25-3.18,4.48-4.53,3.5-8.54,5.34-.52,10.85,8.32,8.08,12.62-1.2,1.86-4.93.54-3.56,2.41.47.64,9.22.37,10.88.77.31-2.55-.52-1.22-2-1.4-6.71-.79-4.23-12.87.47-14.58,3-1.1,1.16,3.93,4.34,4.84L225.4,214c1.72-4.85,4.67-8.84,7.87-12.78-.11-.67-2.41-2.2-3-2.76-1.35-1.33-1.24-3.17-4.09-2.62,3.36,5.64-4.08,7.69-8.39,7-3.32-.52-7.9-3.88-8.2-7.41,5.91,1.19,6.32-7.31,12.76-5.84l3,1.89c-2.39-5.39-9.91-6.4-15.2-5.91-2.24.2-3.95.69-5.33,2.55,0,.65,3.3.43,3.85,2.85,1.18,5.17-4.9,10.93-10,10-1.93-.37-.07-1.83-.16-3.36-.16-2.35-3.67-5.81-.44-8.88a6.77,6.77,0,0,1-4.33-1.58,4.64,4.64,0,0,1-7.73,1.59c-2.62-2.81-.27-7.9-.55-11.28-.18-2.28-4-5.09,1-5.3s12,4.52,12.35,9.71c.16,2.25-.89,2.29-1.54,4.09,3.94.46,7.18-2.24,11.06-2.38.36-.4-1.72-2.71-2.06-3.28S205,177,204.85,176.9s-2.75,1.9-5.51.18c-3.27-2-1.47-4.71-1.68-7.37-.12-1.71-1.5-3.06-1.53-4.8,3.16-1.73,6.36-1.19,9.38.48,1.57.86,2.51,2.22,4.08,2.83.2-1.78-.27-4,0-5.73Zm7.87,10.88c-.32-.25-3.26,1.58-5.72-.39-.49-.39-.34-1.24-1-1.2,1.07,3.13-2.8,3.52-3.39,4.33s3.22,6,4.29,6.45c.78.3,4.16.11,5.51.38,2.09.42,3.6,1.9,5.43,1.47.25-3.79-1.6-5.09-3.48-7.76-.44-.65-1.53-3.16-1.68-3.27ZM309.92,179c-2.61,0-3.89-1.87-3.55-4.35-.62,0-.49.8-1,1.2a5,5,0,0,1-5.56,0c-2.55,4-6.21,6.7-6.51,11.8a19.86,19.86,0,0,1,5.83-2.27c1.38-.2,5.26.26,5.62.11.82-.33,5.44-6.23,5.14-6.52Zm-43.45,13.82c.3-3-1.4-5.69-4.74-5.12,1.26,1.42,1,2.84,0,4.33Zm4.6,10c-20.88-13.2-46.71,7.08-39.14,30.65.89,2.77,6.36,12.37,9.42,12.26,1-.05,6.94-1.83,7.61-2.5,1.29-1.32,2.16-5.55.14-6.59.4,1.45-1.95,2.88-2.34,1.34-.13-.48.51-4.43.37-5.88-.32-3.09-1.21-7.42-1.1-10.54.08-2.24,1-4.92,2.86-6.25.66-.46,1.74-.54,2.09-.88.88-.85-.14-4.08,2.1-6,2-1.76,7.33-1.43,9.25.56s1,5.27,1.42,5.88a11.79,11.79,0,0,1,2.35,1c1.62,1.32,2.37,4.3,2.36,6.32,0,.57-.3,3.41-.41,3.92-.07.3-.76.24-.75.43.16,4-.32,3.3-.81,6.37-.28,1.75.31,3.8.15,5.34-.28,2.67-2-.74-2.15-.82-1.72-1.16-1.62,4.25-.58,5.9.73,1.14,7.23,3.28,8.18,3.1a15.76,15.76,0,0,0,2.88-2.28c12.38-11.59,10.35-32.31-3.91-41.34ZM186.3,219.64c.55-.8-4.48-3.71-5-4.65-1.17-.17-9.25,0-9.6.31-.16.16.61,2.15-.23,3.52-.92,1.53-2.41,1.19-3.32,2.4,3.89-.44,11.17,5.19,6.71,8.69.47-.11,1.06.29,1.4.24,2-.29,6.87-10.22,10.06-10.51Zm54.9,47c-.62-.68-.69.09-.78.6-.75,4.21-2.81,12.8-5.68,15.86-1.16,1.23-3.64,2.42-4.6,4.08a45.45,45.45,0,0,0,10-2.47,2.78,2.78,0,0,0,1.66-1.1c1.09-1.89,1.2-8.18,1-10.45a36.08,36.08,0,0,0-1.59-6.51Zm89.66,25.48a48.71,48.71,0,0,0,0-5.92c0-1.07-2.21-5.45-3-6.49-.34-.45-3.31-3.66-3.73-3.18-1,3.56,2.81,2,3.48,5,1,4.56-5.75,6.07-5.45,10.38.61.4,3-2.9,5.91-1,.82.53,1.14,1.48,1.8,2.15C330.41,293.39,330.83,292.38,330.86,292.13Zm-115.34,31.8c-1.53-.67-4.81,1.93-4.66,3.3.1.93,1.58,1.86,1.42,3.52-.13,1.33-1.89,4.46-3.34,4.59-1.92.17-.15-2.63-.14-3.51-.6-.15-.31.57-.67.79a15.14,15.14,0,0,1-5.45,1.21c-.38,0-5.51-1-4.15.36.21.22,5,2.42,5.52,2.58,1.88.61,13.14,1,14.61.38.92-.4,2.27-3.76,3.36-4.94.8-.86,1.78-1.32,2.57-2.16-1.54-1.15-3.91-4.21-5.93-3.59-2.93.89-1.5,6.87-4.73,7.91-3.51,1.11-1.1-1.67-.71-2.67,1.19-3.05-.6-5.39,2.29-7.78Zm35.16,29.61c.14-1.12.72-1.74.83-3,.26-3-.54-12.29-1-15.48-.05-.31-.06-1.32-.44-1.33-2,3.39-2.07,6.92-1.19,10.68.77,3.32,1.26,3.85,1.4,7.7,0,.47-.3,1.47.39,1.38Zm7.5-19.34c-.2-.2-1.07-.1-.78.59,0,6.27-2.26,12.54-1.18,18.76l1-5.53c1.4-3.36,2.65-6.26,2.15-10a30.53,30.53,0,0,0-1.16-3.78Z" transform="translate(-3.81 -3.81)"/></svg>