<svg xmlns="http://www.w3.org/2000/svg" width="59.944" height="35.474" viewBox="0 0 59.944 35.474">
  <path id="fast-delivery" d="M42.733.353c5.2,1.206,7.185,4.245,9.678,8.428H42.733ZM12.36,9.132a1.542,1.542,0,0,1,1.756,1.639,1.756,1.756,0,0,1-1.751,1.756H1.756a1.756,1.756,0,1,0,0,3.512H17.561a1.756,1.756,0,1,1,.007,3.512H1.756a1.756,1.756,0,0,0,0,3.512H5.619v5.268a1.756,1.756,0,0,0,1.756,1.756h3.53a6.733,6.733,0,0,0,13.194,0H41.931a6.733,6.733,0,0,0,13.194,0h3.062a1.756,1.756,0,0,0,1.756-1.756V17.8c0-5.153-5.435-5.495-5.44-5.5H40.977a1.756,1.756,0,0,1-1.756-1.756V0H7.375A1.756,1.756,0,0,0,5.619,1.756V5.62H3.512a1.756,1.756,0,1,0,0,3.512ZM50.8,26.466a3.22,3.22,0,1,1-5.5,2.277A3.22,3.22,0,0,1,50.8,26.466Zm-31.026,0a3.22,3.22,0,1,1-5.5,2.277A3.22,3.22,0,0,1,19.779,26.466Zm0,0" transform="translate(0.001 0)" fill="#1ea862" fill-rule="evenodd"/>
</svg>
