<svg xmlns="http://www.w3.org/2000/svg" width="57.268" height="56.773" viewBox="0 0 57.268 56.773">
  <g id="Group_2347" data-name="Group 2347" transform="translate(-1080.425 -943.214)">
    <g id="cash-back" transform="translate(1070.584 941.683)">
      <path id="Path_941" data-name="Path 941" d="M154.857,201.494H104.546a2.039,2.039,0,0,1-2.039-2.039v-23.5a2.039,2.039,0,0,1,2.039-2.039h50.311a2.039,2.039,0,0,1,2.039,2.039v23.5A2.039,2.039,0,0,1,154.857,201.494Z" transform="translate(-89.788 -143.189)" fill="#00432c"/>
      <path id="Path_943" data-name="Path 943" d="M139.527,186.164H89.216a2.04,2.04,0,0,1-2.039-2.039v-23.5a2.039,2.039,0,0,1,2.039-2.039h50.311a2.039,2.039,0,0,1,2.039,2.039v23.5A2.039,2.039,0,0,1,139.527,186.164Z" transform="translate(-77.336 -130.737)" fill="#1ea862"/>
      <path id="Path_944" data-name="Path 944" d="M145.707,173.637a2.917,2.917,0,0,1-2.654-3.7H100.116a2.918,2.918,0,0,1-4.06,3.422h0v16.472h0a2.917,2.917,0,0,1,4.06,3.422h42.936a2.918,2.918,0,0,1,4.06-3.422h0V173.36h0A2.908,2.908,0,0,1,145.707,173.637Z" transform="translate(-84.548 -139.959)" fill="#fff"/>
      <circle id="Ellipse_22" data-name="Ellipse 22" cx="7.062" cy="7.062" r="7.062" transform="translate(29.973 34.574)" fill="#1ea862"/>
      <rect id="Rectangle_20" data-name="Rectangle 20" width="10.846" height="3.12" transform="translate(16.483 32.573)" fill="#1ea862"/>
      <rect id="Rectangle_21" data-name="Rectangle 21" width="10.846" height="3.12" transform="translate(46.741 47.58)" fill="#1ea862"/>
      <path id="Path_945" data-name="Path 945" d="M37.473,9.858a1.015,1.015,0,0,0-1.223.439A11.348,11.348,0,0,0,15.78,12.6a1.015,1.015,0,0,0,1.926.639,9.321,9.321,0,0,1,16.683-2.1,1.015,1.015,0,0,0-.5,1.957L36,13.876l.015,0,.054.017.029.008.055.012.028.006.059.008.024,0c.028,0,.056,0,.084,0h0q.039,0,.079,0l.019,0,.06-.007.023,0,.055-.011.026-.007.051-.015.008,0,.015-.006.066-.026.028-.012.063-.032.02-.01c.025-.014.049-.03.072-.046l.027-.02.046-.036.024-.021c.017-.015.034-.031.05-.048l.014-.014q.031-.034.06-.07l0-.005c.017-.022.033-.045.048-.069l.012-.019q.018-.029.033-.059l.013-.025c.009-.019.018-.038.026-.058l.011-.027,0-.009.773-2.113A1.015,1.015,0,0,0,37.473,9.858Z" transform="translate(9.966 -3.304)" fill="#1ea862"/>
      <path id="Path_946" data-name="Path 946" d="M.666,309.683a1.015,1.015,0,0,0,1.223-.439,11.348,11.348,0,0,0,20.47-2.307,1.015,1.015,0,1,0-1.926-.639,9.321,9.321,0,0,1-16.683,2.1,1.015,1.015,0,0,0,.5-1.957l-2.113-.773-.015,0-.054-.017-.029-.008-.055-.012-.028-.006-.059-.008-.024,0c-.028,0-.056,0-.084,0h0c-.026,0-.053,0-.079,0l-.019,0-.06.007-.023,0-.055.011-.026.007-.051.015-.008,0-.015.006-.066.026-.028.012-.063.032-.02.01c-.025.014-.049.03-.072.046l-.027.02-.046.036-.024.021c-.017.015-.034.031-.05.048l-.014.014q-.031.034-.06.07l0,.005c-.017.022-.033.045-.048.069l-.012.019q-.018.029-.033.059l-.013.025c-.009.019-.018.038-.026.058l-.011.027,0,.009-.773,2.113A1.015,1.015,0,0,0,.666,309.683Z" transform="translate(24.984 -290.488)" fill="#1ea862"/>
    </g>
    <text id="_" data-name="$" transform="translate(1105 986)" fill="#fff" font-size="7" font-family="NunitoSans-SemiBold, Nunito Sans" font-weight="600"><tspan x="0" y="0">$</tspan></text>
  </g>
</svg>
