<svg id="verify" xmlns="http://www.w3.org/2000/svg" width="59.516" height="59.516" viewBox="0 0 59.516 59.516">
  <path id="Path_947" data-name="Path 947" d="M27.119,11A16.119,16.119,0,1,0,43.238,27.119,16.138,16.138,0,0,0,27.119,11Zm8.064,12.174L26.5,33.093a2.476,2.476,0,0,1-1.783.846h-.082a2.478,2.478,0,0,1-1.753-.727l-4.96-4.96a2.479,2.479,0,0,1,3.507-3.507l3.085,3.085,6.934-7.926a2.481,2.481,0,1,1,3.732,3.268Z" transform="translate(16.278 16.278)" fill="#1ea862"/>
  <path id="Path_948" data-name="Path 948" d="M41.364,7.514,21.525.074a1.376,1.376,0,0,0-.893,0L.794,7.514A1.243,1.243,0,0,0,0,8.679V24.625C0,47.241,20.608,52,20.806,52.052a1.513,1.513,0,0,0,.546,0,17,17,0,0,0,2.5-.794A20.753,20.753,0,0,1,22.319,43.4,21.106,21.106,0,0,1,42.158,22.343V8.679a1.243,1.243,0,0,0-.794-1.166Z" transform="translate(0 0)" fill="#1ea862"/>
  <path id="Path_954" data-name="Path 954" d="M41.364,7.514,21.525.074a2.532,2.532,0,0,0-.893,0S20.608,52,20.806,52.052a1.513,1.513,0,0,0,.546,0,17,17,0,0,0,2.5-.794A20.753,20.753,0,0,1,22.319,43.4,21.106,21.106,0,0,1,42.158,22.343V8.679a1.243,1.243,0,0,0-.794-1.166Z" opacity="0.11"/>
</svg>
